<svg width="40" height="40" viewBox="0 0 40 40" fill="none" xmlns="http://www.w3.org/2000/svg">
<path d="M28.75 0C23.9252 0 20 3.92516 20 8.75V17.5H5C3.61937 17.5 2.5 18.6194 2.5 20V37.5C2.5 38.8806 3.61937 40 5 40H27.5C28.8806 40 30 38.8806 30 37.5V20C30 18.6194 28.8806 17.5 27.5 17.5H25V8.75C25 6.68211 26.6821 5 28.75 5C30.8179 5 32.5 6.68211 32.5 8.75V15C32.5 16.3806 33.6194 17.5 35 17.5C36.3806 17.5 37.5 16.3806 37.5 15V8.75C37.5 3.92516 33.5748 0 28.75 0ZM17.5 31.0205V33.75C17.5 34.4403 16.9403 35 16.25 35C15.5597 35 15 34.4403 15 33.75V31.0205C13.5467 30.5038 12.5 29.1302 12.5 27.4999C12.5 25.4287 14.1788 23.7499 16.25 23.7499C18.3212 23.7499 20 25.4287 20 27.4999C20 29.1302 18.9533 30.5038 17.5 31.0205Z" fill="black"/>
</svg>
