<svg width="20" height="20" viewBox="0 0 29 18" fill="none" xmlns="http://www.w3.org/2000/svg">
<path d="M0.791666 2.69227C0.790772 2.1387 0.950134 1.60222 1.24208 1.17597C1.40648 0.936063 1.60839 0.737755 1.83624 0.592399C2.06409 0.447042 2.31339 0.357494 2.56989 0.328883C2.82639 0.300273 3.08503 0.333163 3.331 0.425668C3.57697 0.518173 3.80545 0.668475 4.00333 0.867968L14.5 11.4821L25.0163 1.24705C25.2166 1.05024 25.4471 0.903278 25.6945 0.814594C25.9419 0.725909 26.2013 0.697256 26.4579 0.730281C26.7145 0.763307 26.9632 0.857357 27.1897 1.00703C27.4161 1.1567 27.6159 1.35905 27.7775 1.60243C27.9558 1.84756 28.0903 2.13463 28.1725 2.44562C28.2547 2.75661 28.2829 3.08481 28.2553 3.40962C28.2278 3.73442 28.145 4.04882 28.0122 4.33309C27.8794 4.61735 27.6995 4.86534 27.4838 5.0615L15.7338 16.5049C15.3833 16.8533 14.9438 17.0438 14.4902 17.0438C14.0366 17.0438 13.5971 16.8533 13.2467 16.5049L1.49667 4.65873C1.25968 4.42106 1.07234 4.11914 0.949844 3.77747C0.827353 3.43581 0.773159 3.06402 0.791666 2.69227Z" fill="#DAB3B3"/>
</svg>
