<svg width="22" height="22" viewBox="0 0 22 22" fill="none" xmlns="http://www.w3.org/2000/svg">
<path d="M12.94 17.8381C16.6923 17.8381 18.5686 17.8381 19.7342 16.6696C20.9 15.5011 20.9 13.6204 20.9 9.85901C20.9 6.09761 20.9 4.21692 19.7342 3.0484C18.5686 1.87988 16.6923 1.87988 12.94 1.87988H8.95999C5.20761 1.87988 3.33143 1.87988 2.16571 3.0484C1 4.21692 1 6.09761 1 9.85901C1 13.6204 1 15.5011 2.16571 16.6696C2.81562 17.3211 3.68639 17.6093 4.98 17.7369" stroke="#EDEDED" stroke-width="2" stroke-linecap="round" stroke-linejoin="round"/>
<path d="M12.94 17.8381C11.7097 17.8381 10.3552 18.336 9.11779 18.9801C7.13037 20.0145 6.13666 20.5318 5.64698 20.2022C5.15729 19.8726 5.24998 18.8506 5.43536 16.8065L5.47748 16.342" stroke="#EDEDED" stroke-width="2" stroke-linecap="round"/>
</svg>
