<svg width="46" height="44" viewBox="0 0 46 44" fill="none" xmlns="http://www.w3.org/2000/svg">
<path d="M44.9561 0.803629C44.7031 0.559284 44.3834 0.390109 44.0346 0.315995C43.6859 0.241881 43.3225 0.265908 42.9874 0.385252L1.73738 14.9375C1.38163 15.0684 1.07535 15.3012 0.859225 15.605C0.643096 15.9088 0.527344 16.2692 0.527344 16.6383C0.527344 17.0074 0.643096 17.3678 0.859225 17.6716C1.07535 17.9754 1.38163 18.2082 1.73738 18.3391L17.8436 24.5783L29.7311 13.0093L32.3749 15.5741L20.4311 27.1614L26.8811 42.7868C27.0201 43.1253 27.2606 43.4155 27.5715 43.6198C27.8824 43.8241 28.2494 43.9332 28.6249 43.9328C29.0038 43.9253 29.3715 43.8065 29.6794 43.5922C29.9873 43.3779 30.2211 43.0781 30.3499 42.7323L45.3499 2.71361C45.4776 2.39178 45.5084 2.04135 45.4387 1.70318C45.369 1.36501 45.2016 1.05304 44.9561 0.803629Z" fill="black" fill-opacity="0.5"/>
</svg>
