<svg width="28" height="28" viewBox="0 0 27 28" fill="none" xmlns="http://www.w3.org/2000/svg">
<path d="M25.3125 7.62927H21.8531C21.4312 5.68398 19.7437 4.24615 17.7188 4.24615C15.6938 4.24615 14.0063 5.68398 13.5844 7.62927H1.6875V9.32082H13.5844C14.0063 11.2661 15.6938 12.7039 17.7188 12.7039C19.7437 12.7039 21.4312 11.2661 21.8531 9.32082H25.3125V7.62927ZM17.7188 11.0124C16.2844 11.0124 15.1875 9.91287 15.1875 8.47505C15.1875 7.03722 16.2844 5.93771 17.7188 5.93771C19.1531 5.93771 20.25 7.03722 20.25 8.47505C20.25 9.91287 19.1531 11.0124 17.7188 11.0124Z" fill="#EDEDED"/>
<path d="M1.6875 21.1617H5.14687C5.56875 23.107 7.25625 24.5448 9.28125 24.5448C11.3062 24.5448 12.9937 23.107 13.4156 21.1617H25.3125V19.4701H13.4156C12.9937 17.5249 11.3062 16.087 9.28125 16.087C7.25625 16.087 5.56875 17.5249 5.14687 19.4701H1.6875V21.1617ZM9.28125 17.7786C10.7156 17.7786 11.8125 18.8781 11.8125 20.3159C11.8125 21.7538 10.7156 22.8533 9.28125 22.8533C7.84688 22.8533 6.75 21.7538 6.75 20.3159C6.75 18.8781 7.84688 17.7786 9.28125 17.7786Z" fill="#EDEDED"/>
</svg>
