<svg width="40" height="40" viewBox="0 0 40 40" fill="none" xmlns="http://www.w3.org/2000/svg">
<path d="M24.0909 25.2382C23.4792 25.85 22.4873 25.8502 21.8758 25.2384C21.2641 24.6267 21.2641 23.6348 21.8758 23.0233C23.5425 21.3564 23.5425 18.644 21.8758 16.9771C21.2641 16.3654 21.2641 15.3735 21.8758 14.762C22.1816 14.4562 22.5826 14.3033 22.9834 14.3033C23.3842 14.3033 23.7852 14.4562 24.0909 14.7622C26.9792 17.6503 26.9792 22.35 24.0909 25.2382Z" fill="black"/>
<path d="M28.6822 29.8295C28.0705 30.4411 27.0786 30.4411 26.4671 29.8295C25.8554 29.2176 25.8554 28.2259 26.4671 27.6142C30.6655 23.4158 30.6655 16.5843 26.4671 12.386C25.8554 11.7741 25.8554 10.7824 26.4671 10.1707C26.7729 9.86493 27.1739 9.71205 27.5747 9.71205C27.9755 9.71205 28.3765 9.86493 28.6822 10.1707C34.1021 15.5905 34.1021 24.4095 28.6822 29.8295Z" fill="black"/>
<path d="M33.806 34.9534C33.1945 35.5647 32.2026 35.5651 31.5909 34.9534C30.9791 34.3414 30.9791 33.3498 31.5909 32.7381C34.9934 29.3356 36.8672 24.8117 36.8672 20.0001C36.8672 15.1883 34.9934 10.6644 31.5909 7.26215C30.9791 6.6502 30.9791 5.65855 31.5909 5.04681C31.8967 4.74104 32.2977 4.58816 32.6985 4.58816C33.0992 4.58816 33.5003 4.74104 33.806 5.04681C37.8002 9.04098 39.9999 14.3516 39.9999 20.0003C40.0001 25.6486 37.8002 30.959 33.806 34.9534Z" fill="black"/>
<path d="M17.7449 35.9039C17.1885 36.1598 16.5343 36.0677 16.0703 35.6685L6.11678 27.115H1.56642C0.70134 27.115 0 26.4139 0 25.5486V14.4512C0 13.5859 0.70134 12.8848 1.56642 12.8848H6.11678L16.0703 4.33127C16.3602 4.08231 16.7238 3.95282 17.0916 3.95282C17.313 3.95282 17.5358 3.99981 17.7449 4.09589C18.3013 4.35132 18.6578 4.90729 18.6578 5.51924V34.4805C18.6578 35.0925 18.3011 35.6487 17.7449 35.9039ZM3.13285 23.9822H5.13098V16.0176H3.13285V23.9822ZM15.5249 8.93092L8.26383 15.1707V24.8293L15.5249 31.0691V8.93092Z" fill="black"/>
</svg>
