<svg width="28" height="28" viewBox="0 0 28 28" fill="none" xmlns="http://www.w3.org/2000/svg">
<path fill-rule="evenodd" clip-rule="evenodd" d="M26.6257 14.7959C27.1212 14.7936 27.5318 14.3903 27.543 13.895C27.554 13.3996 27.1613 12.9997 26.6657 13.0018L14.8746 13.0529L15.1379 1.26465C15.149 0.769248 14.7563 0.369398 14.2607 0.371558C13.7652 0.373693 13.3546 0.777025 13.3435 1.27242L13.0802 13.0607L1.28916 13.1118C0.793589 13.114 0.382907 13.5173 0.371803 14.0128C0.360818 14.5081 0.753535 14.9079 1.24896 14.9059L13.0401 14.8547L12.7767 26.643C12.7658 27.1384 13.1586 27.5382 13.654 27.5362C14.1495 27.5339 14.5602 27.1306 14.5714 26.6352L14.8346 14.8469L26.6257 14.7959Z" fill="black"/>
</svg>
