<svg width="75" height="75" viewBox="0 0 75 75" fill="none" xmlns="http://www.w3.org/2000/svg">
<path d="M37.5005 6.25012C31.3198 6.25012 25.278 8.0829 20.1389 11.5167C14.9999 14.9505 10.9945 19.8311 8.62927 25.5413C6.26403 31.2515 5.64517 37.5348 6.85096 43.5967C8.05675 49.6586 11.033 55.2268 15.4034 59.5972C19.7738 63.9676 25.342 66.9439 31.4039 68.1497C37.4658 69.3555 43.7492 68.7366 49.4594 66.3714C55.1695 64.0061 60.0501 60.0007 63.4839 54.8617C66.9177 49.7227 68.7505 43.6808 68.7505 37.5001C68.7505 33.3963 67.9422 29.3327 66.3717 25.5413C64.8013 21.7498 62.4994 18.3049 59.5976 15.403C56.6957 12.5012 53.2508 10.1993 49.4594 8.62889C45.6679 7.05843 41.6043 6.25012 37.5005 6.25012ZM37.5005 56.2501C36.8824 56.2501 36.2782 56.0668 35.7643 55.7235C35.2504 55.3801 34.8499 54.892 34.6134 54.321C34.3769 53.75 34.315 53.1217 34.4355 52.5155C34.5561 51.9093 34.8538 51.3525 35.2908 50.9154C35.7278 50.4784 36.2847 50.1807 36.8908 50.0602C37.497 49.9396 38.1254 50.0015 38.6964 50.238C39.2674 50.4745 39.7555 50.8751 40.0988 51.389C40.4422 51.9029 40.6255 52.5071 40.6255 53.1251C40.6255 53.9539 40.2963 54.7488 39.7102 55.3348C39.1242 55.9209 38.3293 56.2501 37.5005 56.2501ZM43.8661 38.5378C42.1171 39.7896 40.6255 41.5993 40.6255 43.7501C40.6255 44.5789 40.2963 45.3738 39.7102 45.9598C39.1242 46.5459 38.3293 46.8751 37.5005 46.8751C36.6717 46.8751 35.8768 46.5459 35.2908 45.9598C34.7047 45.3738 34.3755 44.5789 34.3755 43.7501V37.5001C34.3755 36.6713 34.7047 35.8765 35.2908 35.2904C35.8768 34.7044 36.6717 34.3751 37.5005 34.3751C38.4276 34.3751 39.3339 34.1002 40.1047 33.5851C40.8756 33.0701 41.4764 32.338 41.8312 31.4815C42.186 30.6249 42.2788 29.6824 42.0979 28.7731C41.9171 27.8638 41.4706 27.0286 40.8151 26.3731C40.1595 25.7175 39.3243 25.2711 38.415 25.0902C37.5057 24.9093 36.5632 25.0022 35.7067 25.3569C34.8501 25.7117 34.1181 26.3125 33.603 27.0834C33.0879 27.8542 32.813 28.7605 32.813 29.6876C32.813 30.5164 32.4838 31.3113 31.8977 31.8973C31.3117 32.4834 30.5168 32.8126 29.688 32.8126C28.8592 32.8126 28.0643 32.4834 27.4783 31.8973C26.8922 31.3113 26.563 30.5164 26.563 29.6876C26.5548 27.6573 27.1119 25.6648 28.172 23.9332C29.232 22.2015 30.7531 20.7991 32.5649 19.8829C34.3768 18.9668 36.4079 18.573 38.4309 18.7457C40.4538 18.9184 42.3888 19.6508 44.0191 20.8609C45.6494 22.071 46.9108 23.7109 47.6619 25.5972C48.413 27.4835 48.6243 29.5416 48.272 31.5411C47.9198 33.5407 47.018 35.4027 45.6675 36.9187C45.1263 37.5263 44.5217 38.0686 43.8661 38.5378Z" fill="#231F20" fill-opacity="0.5"/>
</svg>
