<svg width="98" height="23" viewBox="0 0 98 23" fill="none" xmlns="http://www.w3.org/2000/svg">
<path fill-rule="evenodd" clip-rule="evenodd" d="M11.4653 22.3727C8.49914 22.3727 5.65442 21.1944 3.557 19.0969C1.45957 16.9995 0.28125 14.1548 0.28125 11.1886C0.28125 8.22239 1.45957 5.37767 3.557 3.28024C5.65442 1.18282 8.49914 0.00449657 11.4653 0.00449657C14.4316 0.00449657 17.2763 1.18282 19.3737 3.28024C21.4711 5.37767 22.6494 8.22239 22.6494 11.1886C22.6494 14.1548 21.4711 16.9995 19.3737 19.0969C17.2763 21.1944 14.4316 22.3727 11.4653 22.3727ZM48.7457 22.3727C45.7795 22.3727 42.9347 21.1944 40.8373 19.0969C38.7399 16.9995 37.5616 14.1548 37.5616 11.1886C37.5616 8.22239 38.7399 5.37767 40.8373 3.28024C42.9347 1.18282 45.7795 0.00449657 48.7457 0.00449657C51.7119 0.00449657 54.5566 1.18282 56.654 3.28024C58.7515 5.37767 59.9298 8.22239 59.9298 11.1886C59.9298 14.1548 58.7515 16.9995 56.654 19.0969C54.5566 21.1944 51.7119 22.3727 48.7457 22.3727ZM86.026 22.3727C83.0598 22.3727 80.2151 21.1944 78.1177 19.0969C76.0202 16.9995 74.8419 14.1548 74.8419 11.1886C74.8419 8.22239 76.0202 5.37767 78.1177 3.28024C80.2151 1.18282 83.0598 0.00449657 86.026 0.00449657C88.9922 0.00449657 91.8369 1.18282 93.9344 3.28024C96.0318 5.37767 97.2101 8.22239 97.2101 11.1886C97.2101 14.1548 96.0318 16.9995 93.9344 19.0969C91.8369 21.1944 88.9922 22.3727 86.026 22.3727Z" fill="black"/>
</svg>
